Elementhunters Episode 1. with Hungarian subtitle

General
Complete name                            : [RhisiartK] Elementhunters - 01 (1280x720 8bit AVC MP3)_with_sub.mkv
Format                                   : Matroska
Format version                           : Version 4 / Version 2
File size                                : 392 MiB
Duration                                 : 24mn 30s
Overall bit rate                         : 2 235 Kbps
Encoded date                             : UTC 2013-05-18 17:12:39
Writing application                      : mkvmerge v6.1.0 ('Old Devil') built on Mar  2 2013 14:32:37
Writing library                          : libebml v1.3.0 + libmatroska v1.4.0
Attachment                               : Yes / Yes / Yes / Yes / Yes / Yes / Imported font from [RhisiartK] Element Hunters - 01 (1280x720 8bit AVC MP3).ass / Imported font from [RhisiartK] Element Hunters - 01 (1280x720 8bit AVC MP3).ass / Imported font from [RhisiartK] Element Hunters - 01 (1280x720 8bit AVC MP3).ass / Imported font from [RhisiartK] Element Hunters - 01 (1280x720 8bit AVC MP3).ass

Video
ID                                       : 2
Format                                   : AVC
Format/Info                              : Advanced Video Codec
Format profile                           : High@L4.0
Format settings, CABAC                   : No
Format settings, ReFrames                : 8 frames
Format settings, GOP                     : M=1, N=12
Codec ID                                 : V_MPEG4/ISO/AVC
Duration                                 : 24mn 30s
Bit rate                                 : 1 999 Kbps
Width                                    : 1 280 pixels
Height                                   : 720 pixels
Display aspect ratio                     : 16:9
Frame rate mode                          : Constant
Frame rate                               : 24.000 fps
Color space                              : YUV
Chroma subsampling                       : 4:2:0
Bit depth                                : 8 bits
Scan type                                : Progressive
Bits/(Pixel*Frame)                       : 0.090
Stream size                              : 350 MiB (89%)
Default                                  : Yes
Forced                                   : No

Audio
ID                                       : 3
Format                                   : MPEG Audio
Format version                           : Version 1
Format profile                           : Layer 3
Mode                                     : Joint stereo
Mode extension                           : MS Stereo
Codec ID                                 : A_MPEG/L3
Codec ID/Hint                            : MP3
Duration                                 : 24mn 30s
Bit rate mode                            : Constant
Bit rate                                 : 192 Kbps
Channel(s)                               : 2 channels
Sampling rate                            : 48.0 KHz
Compression mode                         : Lossy
Stream size                              : 33.6 MiB (9%)
Writing library                          : LAME3.97
Default                                  : Yes
Forced                                   : No

Text
ID                                       : 1
Format                                   : ASS
Codec ID                                 : S_TEXT/ASS
Codec ID/Info                            : Advanced Sub Station Alpha
Compression mode                         : Lossless
Default                                  : Yes
Forced                                   : Yes
